<svg xmlns="http://www.w3.org/2000/svg" viewBox="0 0 47.45 50.62"><defs><style>.cls-1{fill:#302179;}</style></defs><title>Asset 3</title><g id="Layer_2" data-name="Layer 2"><g id="Layer_1-2" data-name="Layer 1"><path class="cls-1" d="M36.24,23.07a1.58,1.58,0,0,0-1.44-.93H28.47V1.58A1.58,1.58,0,0,0,26.89,0H20.56A1.58,1.58,0,0,0,19,1.58V22.14H12.65a1.6,1.6,0,0,0-1.44.93,1.62,1.62,0,0,0,.25,1.7L22.54,37.42a1.55,1.55,0,0,0,1.19.54,1.62,1.62,0,0,0,1.19-.54L36,24.77a1.6,1.6,0,0,0,.25-1.7Z"/><path class="cls-1" d="M41.13,34.8v9.49H6.33V34.8H0V47.45a3.17,3.17,0,0,0,3.16,3.17H44.29a3.16,3.16,0,0,0,3.16-3.17V34.8Z"/></g></g></svg>