<svg xmlns="http://www.w3.org/2000/svg" viewBox="0 0 39.05 30.69"><defs><style>.cls-1{fill:#fff;}</style></defs><title>envelope</title><g id="Layer_2" data-name="Layer 2"><g id="Layer_1-2" data-name="Layer 1"><path class="cls-1" d="M35.57,30.69a3.3,3.3,0,0,0,2.28-.87L26.79,18.76l-.77.55c-.83.61-1.5,1.09-2,1.43a12.6,12.6,0,0,1-2.06,1,6.25,6.25,0,0,1-2.4.54h0a6.21,6.21,0,0,1-2.4-.54,11.83,11.83,0,0,1-2.06-1c-.52-.34-1.19-.82-2-1.43-.23-.17-.48-.36-.76-.55L1.2,29.82a3.32,3.32,0,0,0,2.29.87Z"/><path class="cls-1" d="M2.2,11.79A11.19,11.19,0,0,1,0,9.89V26.73L9.75,17C7.8,15.61,5.29,13.89,2.2,11.79Z"/><path class="cls-1" d="M36.87,11.79c-3,2-5.49,3.74-7.56,5.19l9.74,9.75V9.89a11.85,11.85,0,0,1-2.18,1.9Z"/><path class="cls-1" d="M35.57,0H3.49A3.15,3.15,0,0,0,.9,1.13,4.43,4.43,0,0,0,0,4a5.09,5.09,0,0,0,1.2,3A10.82,10.82,0,0,0,3.75,9.46q.74.52,4.47,3.1L11.73,15l2.2,1.54.32.23.6.44L16,18c.31.22.69.45,1.13.71a6.68,6.68,0,0,0,1.26.59,3.46,3.46,0,0,0,1.09.2h0a3.51,3.51,0,0,0,1.09-.2,6.62,6.62,0,0,0,1.25-.59c.45-.26.82-.49,1.14-.71s.7-.48,1.17-.82l.6-.44.33-.23L27.34,15l8-5.55A10.42,10.42,0,0,0,38,6.78a5.79,5.79,0,0,0,1.06-3.29A3.36,3.36,0,0,0,38,1a3.38,3.38,0,0,0-2.45-1Z"/></g></g></svg>