<svg xmlns="http://www.w3.org/2000/svg" viewBox="0 0 721.7 383.87"><defs><style>.cls-1{fill:#fff;}</style></defs><title>logo</title><g id="Layer_2" data-name="Layer 2"><g id="Layer_1-2" data-name="Layer 1"><path class="cls-1" d="M136.22,184.47q-11.52,1-22.84-9.46l-16-14.61v27.46l-34.29,3V99.44l65.1-5.7A29.37,29.37,0,0,1,150.55,101a26.38,26.38,0,0,1,9.65,20.79,31.79,31.79,0,0,1-5.49,17.7,33.93,33.93,0,0,1-14.14,12.42,5.91,5.91,0,0,0,6,3.09l19.43-1.7v28.6ZM125.9,126a6,6,0,0,0-2.07-4.64,5.89,5.89,0,0,0-4.76-1.66l-21.7,1.9v13.73l21.7-1.9a7.06,7.06,0,0,0,4.76-2.49A7.19,7.19,0,0,0,125.9,126Z"/><path class="cls-1" d="M171.65,181.37V89.94l34.29-3v91.43Z"/><path class="cls-1" d="M266.69,110.22c-1.52.14-2.27,1.1-2.27,2.88q0,.68.33.84l16.61,11q10.25,6.87,10.25,19.91,0,10.85-8.84,19.24t-19.83,9.3l-51.3,4.49v-28.6l34-3c1.52-.14,2.28-1.12,2.28-3a1,1,0,0,0-.33-.77l-15.47-10q-9-5.84-9-19.44Q223,102,231.73,93t19.89-10l51.44-4.5V107Z"/><path class="cls-1" d="M308.82,169.36V77.94l91.43-8v28.6l-57.13,5v5.09l34.29-3v24l-34.29,3v5.09l57.13-5v28.6Z"/><path class="cls-1" d="M554.57,102.12q0,19.22-14.87,34-14.26,14.31-33.69,16T472.32,142q-14.86-12.17-14.87-31.39t14.87-34Q486.72,62.37,506,60.69t33.69,10Q554.57,83,554.57,102.12Zm-30.81,2.73a14.65,14.65,0,0,0-5.43-11.56,15.9,15.9,0,0,0-12.32-4,19,19,0,0,0-12.46,6.17A17.62,17.62,0,0,0,488.26,108a14.7,14.7,0,0,0,5.29,11.57,16.06,16.06,0,0,0,12.46,4,19,19,0,0,0,12.39-6.16A17.73,17.73,0,0,0,523.76,104.85Z"/><path class="cls-1" d="M594.62,81.53v5.09l34.29-3v24l-34.29,3v33.69l-34.29,3V55.93l91.42-8v28.6Z"/><path class="cls-1" d="M137.18,8.7V24.31l-16.63,1.45V62.57l-17.06,1.49V27.25L86.86,28.71V13.1Z"/><path class="cls-1" d="M163.67,24.46V6.38l17.07-1.49V57.3l-17.07,1.5V39.92L150,41.12V60l-17.06,1.49V24.68L122,25.63V10L150,7.58V25.66Z"/><path class="cls-1" d="M184.37,57V20.18l-10.89.95V5.52L229.31.64V16.25l-27.88,2.43v6l18-1.58v9.15l-18,1.58v6l32.31-2.82V52.67Z"/><path class="cls-1" d="M334.2,383.87V344.21l-11.74,1V328.41l60.16-5.26V340l-30,2.63v6.49l19.4-1.7v9.86l-19.4,1.7v23.31Z"/><path class="cls-1" d="M449,345.89A32.35,32.35,0,0,1,445.16,362,27.36,27.36,0,0,1,434,372.83a45.17,45.17,0,0,1-17.5,4.82q-10.17.89-17.46-1.78a20.83,20.83,0,0,1-11.05-8.81q-3.76-6.15-3.76-15.49a35,35,0,0,1,2.15-12.65,26.73,26.73,0,0,1,6.3-9.6,30.78,30.78,0,0,1,10.17-6.47,47.65,47.65,0,0,1,13.65-3.09q10.13-.88,17.48,1.81a21.58,21.58,0,0,1,11.23,8.88Q449,336.63,449,345.89ZM404.25,350a16.78,16.78,0,0,0,2.44,9.25q2.44,3.81,9.64,3.18,5.57-.48,8.31-2.84a9.92,9.92,0,0,0,3.45-5.13,38.52,38.52,0,0,0,.92-6.63,18.81,18.81,0,0,0-2.62-9.25q-2.4-3.84-10.06-3.17Q404.26,336.43,404.25,350Z"/><path class="cls-1" d="M451.73,373.58V317.1l36.77-3.21a21.89,21.89,0,0,1,11.18,2.62,15.27,15.27,0,0,1,6.42,7.41q1.56,7.38.15,11.57a16.33,16.33,0,0,1-4.92,7.24,29.12,29.12,0,0,1-10.1,5.18l4.23,5,16.9-1.48v16.82l-22.3,2-17.91-17.09V371.8Zm20.42-44.18v10.4l14.23-1.24a5.14,5.14,0,0,0,2.47-1.06c.89-.64,1.36-2.09,1.41-4.37q-.19-3.22-1.59-4.14a3.83,3.83,0,0,0-2.32-.83Z"/><path class="cls-1" d="M550.37,348.13l17.68-1.54v16.82l-25,2.19a39.29,39.29,0,0,1-16.62-1.82A23.22,23.22,0,0,1,514.68,355q-4.27-6.15-4.28-15.62a28.21,28.21,0,0,1,2.56-12.1,27.41,27.41,0,0,1,7.1-9.3,35.16,35.16,0,0,1,10.42-6.08A47.13,47.13,0,0,1,543,309.12l15.49-1.36,9.54-.83v16.81l-17.68,1.55a82.61,82.61,0,0,0-8.8,1.12,24.85,24.85,0,0,0-5.08,1.62,10.75,10.75,0,0,0-4,3.2c-1.15,1.46-1.81,3.92-2,7.37q.19,5,2,7a7.64,7.64,0,0,0,4.38,2.47,30.85,30.85,0,0,0,5.32.51C544.06,348.6,546.78,348.45,550.37,348.13Z"/><path class="cls-1" d="M570.4,363.2V306.72l48.42-4.24V319.3l-30,2.63v6.49l19.4-1.69v9.85l-19.4,1.7v6.49l34.81-3v16.82Z"/><path class="cls-1" d="M65.57,321.76l45.21-72.24-45.21,4V222.39l105.56-9.24-45.2,72.25,45.2-4v31.09Z"/><path class="cls-1" d="M283,253q0,20.89-16.16,36.94-15.5,15.56-36.62,17.4t-36.61-11q-16.17-13.22-16.17-34.11V212.61l33.49-2.93v49.65a16.07,16.07,0,0,0,5.75,12.6,17.48,17.48,0,0,0,13.54,4.35,20.6,20.6,0,0,0,13.4-6.71,19,19,0,0,0,5.9-13.62V206.3L283,203.37Z"/><path class="cls-1" d="M368.71,295.24q-12.51,1.1-24.82-10.28l-17.4-15.87v29.84l-37.27,3.26V248.82l60.86-5.33a7.73,7.73,0,0,0,5.16-2.63,7.85,7.85,0,0,0,2.26-5.44,6.53,6.53,0,0,0-2.26-5,6.38,6.38,0,0,0-5.16-1.81l-60.86,5.33V202.82L360,196.63a31.86,31.86,0,0,1,24.31,7.85,28.65,28.65,0,0,1,10.49,22.59,34.64,34.64,0,0,1-6,19.24,37,37,0,0,1-15.37,13.5,6.43,6.43,0,0,0,6.48,3.36L401,261.33v31.08Z"/><path class="cls-1" d="M407.22,291.87V192.5l37.28-3.26v99.37Z"/><path class="cls-1" d="M503.47,283.45q-21.12,1.85-36.62-11-16.17-13.23-16.16-34.11t16.16-36.95q15.64-15.48,36.62-17.32l40.4-3.54v31.09l-40.4,3.53a20.68,20.68,0,0,0-13.47,6.7q-5.83,6.1-5.83,13.59A16,16,0,0,0,489.92,248a17.48,17.48,0,0,0,13.55,4.33l40.4-3.53v31.08Z"/><path class="cls-1" d="M618.34,273.4V236.78l-31,2.71v36.62l-37.27,3.26V180l37.27-3.26v36.62l31-2.72V174l37.28-3.27v99.38Z"/><path class="cls-1" d="M120.55,51.93,7.85,62.24A8.83,8.83,0,0,0,0,70.93V361.48a7.13,7.13,0,0,0,7.85,7.29l319-28.39V328L14.17,356.31A2.26,2.26,0,0,1,11.68,354V75.08a2.81,2.81,0,0,1,2.49-2.76l106.38-9.75Z"/><path class="cls-1" d="M612.26,303l95-7.77a2.85,2.85,0,0,0,2.54-2.77V13.56a2.3,2.3,0,0,0-2.54-2.32L230.48,53V42.31L713.7,0a7.21,7.21,0,0,1,8,7.3V297.87a8.91,8.91,0,0,1-8,8.7l-77,6.73-24.4,2.23Z"/></g></g></svg>