<svg xmlns="http://www.w3.org/2000/svg" viewBox="0 0 40.83 40.73"><defs><style>.cls-1{fill:#fff;}</style></defs><title>phone</title><g id="Layer_2" data-name="Layer 2"><g id="Layer_1-2" data-name="Layer 1"><path class="cls-1" d="M39.91,32.22l-6.3-6.31A3.29,3.29,0,0,0,29,26l-3.18,3.18-.62-.35a31.58,31.58,0,0,1-7.64-5.53A31.79,31.79,0,0,1,12,15.65L11.65,15l2.13-2.12,1.05-1.05a3.28,3.28,0,0,0,.08-4.64L8.61.92A3.28,3.28,0,0,0,4,1L2.2,2.79l0,0A10.45,10.45,0,0,0,.13,8C-.71,14.94,2.45,21.25,11,29.81,22.84,41.64,32.38,40.75,32.79,40.7A10.46,10.46,0,0,0,35.42,40,10.28,10.28,0,0,0,38,38.59l0,0,1.8-1.76a3.3,3.3,0,0,0,.08-4.64Z"/></g></g></svg>