<svg xmlns="http://www.w3.org/2000/svg" viewBox="0 0 72.25 77.53"><defs><style>.cls-1{fill:#fff;}</style></defs><title>user</title><g id="Layer_2" data-name="Layer 2"><g id="Layer_1-2" data-name="Layer 1"><path class="cls-1" d="M69.42,77.53H2.83A2.83,2.83,0,0,1,0,74.7c0-20,12.83-31,36.13-31s36.12,11,36.12,31A2.83,2.83,0,0,1,69.42,77.53ZM5.76,71.87H66.49c-1.11-15-11.32-22.54-30.36-22.54S6.88,56.91,5.76,71.87Z"/><path class="cls-1" d="M36.13,39.52c-10.35,0-18.77-9.14-18.77-20.37C17.36,8.23,25.42,0,36.13,0S54.9,8.23,54.9,19.15C54.9,30.38,46.48,39.52,36.13,39.52Zm0-33.86C28.53,5.66,23,11.33,23,19.15c0,8.11,5.89,14.71,13.12,14.71s13.11-6.6,13.11-14.71C49.24,11.46,43.6,5.66,36.13,5.66Z"/></g></g></svg>